<svg width="420" height="78" viewBox="0 0 420 78" fill="none" xmlns="http://www.w3.org/2000/svg">
<rect x="2" y="2" width="416" height="74" stroke="#0074FF" stroke-width="4"/>
<rect width="185" height="60" transform="matrix(1 0 0 -1 9 69)" fill="#0074FF"/>
<path d="M162.536 56.88V21.52H184.584V28.592H170.336V35.612H184.064V42.684H170.336V49.808H184.584V56.88H162.536Z" fill="white"/>
<path d="M139.438 57.4C136.942 57.4 134.585 56.932 132.366 55.996C130.182 55.0253 128.258 53.708 126.594 52.044C124.93 50.38 123.613 48.456 122.642 46.272C121.706 44.0533 121.238 41.696 121.238 39.2C121.238 36.704 121.706 34.364 122.642 32.18C123.613 29.9613 124.93 28.02 126.594 26.356C128.258 24.692 130.182 23.392 132.366 22.456C134.585 21.4853 136.942 21 139.438 21C142.038 21 144.5 21.5373 146.822 22.612C149.145 23.652 151.173 25.108 152.906 26.98C154.64 28.8173 155.905 30.9667 156.702 33.428H148.122C147.256 31.556 146.025 30.2387 144.43 29.476C142.836 28.6787 141.172 28.28 139.438 28.28C138.052 28.28 136.734 28.5747 135.486 29.164C134.238 29.7187 133.129 30.516 132.158 31.556C131.222 32.5613 130.477 33.74 129.922 35.092C129.402 36.4093 129.142 37.8133 129.142 39.304C129.142 40.7947 129.402 42.216 129.922 43.568C130.477 44.8853 131.222 46.064 132.158 47.104C133.129 48.1093 134.238 48.9067 135.486 49.496C136.734 50.0507 138.052 50.328 139.438 50.328C140.582 50.328 141.778 50.172 143.026 49.86C144.309 49.5133 145.488 48.872 146.562 47.936C147.672 47 148.538 45.648 149.162 43.88H140.166V38.004H157.586V39.2C157.586 41.696 157.118 44.0533 156.182 46.272C155.246 48.456 153.946 50.3973 152.282 52.096C150.618 53.76 148.694 55.06 146.51 55.996C144.326 56.932 141.969 57.4 139.438 57.4Z" fill="white"/>
<path d="M106.311 27.3139L104.491 28.1653L104.067 27.8467C103.451 27.3805 102.704 27.0957 101.91 27.0246C101.115 26.9535 100.306 27.099 99.5727 27.4444L92.2928 30.8498C91.5576 31.1909 90.927 31.719 90.4724 32.3743C90.0178 33.0297 89.7574 33.786 89.7207 34.5575L89.6938 35.0867L87.8739 35.9381C86.8261 36.4282 86.0044 37.29 85.5897 38.3339C85.175 39.3778 85.2011 40.5183 85.6624 41.5045L91.4602 53.899C91.7677 54.5564 92.3401 55.0571 93.0515 55.2909C93.7629 55.5248 94.555 55.4726 95.2536 55.1458L116.324 45.2897C117.023 44.9629 117.571 44.3884 117.847 43.6924C118.123 42.9965 118.106 42.2362 117.799 41.5787L112.001 29.1842C111.539 28.1981 110.681 27.447 109.614 27.0963C108.547 26.7455 107.358 26.8238 106.311 27.3139ZM105.76 38.1461C106.161 39.0041 106.283 39.9693 106.11 40.9196C105.938 41.8699 105.478 42.7626 104.789 43.4849C104.101 44.2072 103.214 44.7266 102.242 44.9775C101.269 45.2283 100.255 45.1993 99.3264 44.8942C98.398 44.589 97.5974 44.0214 97.0259 43.2631C96.4545 42.5048 96.1377 41.5898 96.1158 40.634C96.0939 39.6781 96.3677 38.7242 96.9027 37.893C97.4377 37.0618 98.2099 36.3905 99.1215 35.9641C100.344 35.3923 101.73 35.3009 102.975 35.7101C104.22 36.1193 105.222 36.9956 105.76 38.1461Z" fill="white"/>
<path d="M37.559 56.88L44.423 21.52H53.679L61.063 46.324L68.395 21.52H77.651L84.515 56.88H75.935L71.775 32.492L64.859 56.88H57.215L50.299 32.492L46.139 56.88H37.559Z" fill="white"/>
<path d="M18 56.88V49.808H22.212V28.592H18V21.52H34.12V28.592H30.012V49.808H34.12V56.88H18Z" fill="white"/>
<path d="M381.297 56.88V21.52H395.597C397.504 21.52 399.306 22.0054 401.005 22.976C402.704 23.912 404.09 25.2294 405.165 26.928C406.24 28.6267 406.777 30.6027 406.777 32.856C406.777 34.832 406.413 36.5654 405.685 38.056C404.992 39.5467 404.021 40.7774 402.773 41.748C401.525 42.7187 400.086 43.4294 398.457 43.88L407.973 56.88H399.289L390.189 44.244H389.097V56.88H381.297ZM389.097 38.108H394.297C395.06 38.108 395.788 37.9174 396.481 37.536C397.209 37.12 397.798 36.5134 398.249 35.716C398.734 34.9187 398.977 33.9654 398.977 32.856C398.977 31.7814 398.734 30.8627 398.249 30.1C397.798 29.3027 397.209 28.696 396.481 28.28C395.788 27.864 395.06 27.656 394.297 27.656H389.097V38.108Z" fill="#0074FF"/>
<path d="M353.52 56.88V21.52H375.568V28.592H361.32V35.612H375.048V42.684H361.32V49.808H375.568V56.88H353.52Z" fill="#0074FF"/>
<path d="M330.97 56.88V28.592H320.362V21.52H349.378V28.592H338.77V56.88H330.97Z" fill="#0074FF"/>
<path d="M303.104 57.712C301.162 57.712 299.29 57.4693 297.488 56.984C295.72 56.4987 294.125 55.7533 292.704 54.748C291.317 53.708 290.208 52.408 289.376 50.848C288.544 49.2533 288.128 47.3813 288.128 45.232H296.032C296.101 46.6187 296.482 47.78 297.176 48.716C297.869 49.6173 298.753 50.2933 299.828 50.744C300.937 51.16 302.133 51.368 303.416 51.368C304.248 51.368 305.149 51.2467 306.12 51.004C307.09 50.7267 307.922 50.2933 308.616 49.704C309.344 49.08 309.708 48.248 309.708 47.208C309.708 46.4107 309.448 45.752 308.928 45.232C308.442 44.6773 307.766 44.2267 306.9 43.88C306.033 43.5333 305.045 43.2213 303.936 42.944C302.826 42.6667 301.682 42.372 300.504 42.06C299.152 41.7133 297.8 41.2973 296.448 40.812C295.13 40.3267 293.934 39.72 292.86 38.992C291.785 38.2293 290.918 37.2587 290.26 36.08C289.601 34.9013 289.272 33.4453 289.272 31.712C289.272 29.8747 289.653 28.2973 290.416 26.98C291.178 25.628 292.184 24.5187 293.432 23.652C294.714 22.7507 296.136 22.092 297.696 21.676C299.29 21.2253 300.885 21 302.48 21C304.317 21 306.05 21.208 307.68 21.624C309.344 22.04 310.834 22.6987 312.152 23.6C313.469 24.5013 314.509 25.68 315.272 27.136C316.069 28.5573 316.502 30.2733 316.572 32.284H309.032C308.824 30.4467 308.182 29.1813 307.108 28.488C306.033 27.76 304.525 27.396 302.584 27.396C301.856 27.396 301.076 27.5173 300.244 27.76C299.446 28.0027 298.753 28.4013 298.164 28.956C297.609 29.476 297.332 30.1867 297.332 31.088C297.332 31.7813 297.54 32.3533 297.956 32.804C298.406 33.2547 299.013 33.636 299.776 33.948C300.573 34.26 301.457 34.5373 302.428 34.78C303.433 35.0227 304.49 35.2653 305.6 35.508C307.021 35.8547 308.442 36.2707 309.864 36.756C311.285 37.2067 312.585 37.8133 313.764 38.576C314.977 39.3387 315.948 40.344 316.676 41.592C317.404 42.84 317.768 44.4173 317.768 46.324C317.768 48.404 317.352 50.172 316.52 51.628C315.688 53.084 314.561 54.2627 313.14 55.164C311.753 56.0307 310.176 56.672 308.408 57.088C306.674 57.504 304.906 57.712 303.104 57.712Z" fill="#0074FF"/>
<path d="M250.976 56.88L265.328 21.52H271.932L286.284 56.88H277.912L275.364 49.756H261.896L259.348 56.88H250.976ZM264.132 43.36H273.076L268.604 30.776L264.132 43.36Z" fill="#0074FF"/>
<path d="M203 56.88L209.864 21.52H219.12L226.504 46.324L233.836 21.52H243.092L249.956 56.88H241.376L237.216 32.492L230.3 56.88H222.656L215.74 32.492L211.58 56.88H203Z" fill="#0074FF"/>
</svg>
